<svg xmlns="http://www.w3.org/2000/svg" width="256" height="256" viewBox="-9 -42 256 256"><title>KAERON — Donjon</title><rect x="-9" y="-42" width="256" height="256" rx="32" fill="#13110f"/><path fill="#d4a24c" fill-rule="evenodd" d="M99,120 L99,128 L100,129 L100,134 L101,135 L100,140 L99,141 L99,149 L110,158 L110,161 L111,162 L111,170 L113,173 L123,173 L126,169 L126,159 L127,157 L138,148 L138,143 L136,139 L137,120 L133,122 L125,130 L111,130 L107,125 Z M106,143 L107,142 L111,143 L113,145 L114,148 L113,149 L110,147 L108,147 Z M130,141 L131,142 L130,145 L128,147 L124,148 L123,147 L124,144 Z M105,142 L106,141 L107,142 L106,143 Z M187,57 L187,80 L190,83 L190,172 L238,172 L238,165 L237,164 L237,137 L236,136 L236,111 L235,110 L235,85 L234,84 L237,80 L237,57 L227,57 L227,67 L226,68 L219,68 L217,66 L217,57 L207,57 L207,67 L206,68 L199,68 L198,67 L198,57 Z M211,88 L214,88 L217,91 L217,110 L216,111 L209,111 L208,110 L208,90 Z M1,57 L1,80 L4,83 L4,89 L3,90 L3,116 L2,117 L2,139 L1,140 L1,165 L0,166 L0,172 L48,172 L48,83 L51,80 L51,57 L41,57 L41,66 L39,68 L32,68 L31,67 L31,57 L20,57 L20,66 L21,67 L20,68 L12,68 L11,67 L11,57 Z M24,88 L28,88 L31,92 L31,110 L30,111 L22,111 L21,110 L21,91 Z M76,0 L76,28 L79,31 L79,43 L78,44 L78,66 L77,67 L77,86 L75,88 L71,88 L71,97 L70,98 L63,98 L62,97 L62,88 L53,88 L53,172 L78,172 L78,132 L79,131 L79,127 L82,121 L89,113 L88,98 L87,97 L87,90 L89,88 L92,88 L97,90 L101,94 L109,105 L117,105 L118,104 L119,105 L128,105 L131,100 L140,90 L146,89 L147,88 L149,90 L149,100 L148,101 L148,111 L147,113 L155,122 L158,130 L158,172 L185,172 L185,88 L176,88 L176,97 L175,98 L168,98 L167,97 L167,88 L162,88 L161,87 L161,67 L160,66 L160,43 L159,42 L159,31 L162,28 L162,0 L151,0 L151,12 L150,13 L144,13 L143,12 L143,6 L142,5 L142,2 L143,1 L142,0 L132,0 L132,12 L131,13 L125,13 L124,12 L124,0 L114,0 L114,12 L113,13 L107,13 L106,12 L106,1 L105,0 L96,0 L96,12 L95,13 L89,13 L87,11 L87,0 Z M116,36 L122,36 L124,39 L124,59 L123,60 L115,60 L114,59 L114,39 Z"/></svg>
